<?xml version="1.0" encoding="UTF-8"?>
<svg width="45px" height="45px" viewBox="0 0 45 45" version="1.1" xmlns="http://www.w3.org/2000/svg" xmlns:xlink="http://www.w3.org/1999/xlink">
    <!-- Generator: Sketch 45 (43475) - http://www.bohemiancoding.com/sketch -->
    <title>ic-involved</title>
    <desc>Created with Sketch.</desc>
    <defs>
        <path d="M38.9035556,11.4315556 L28.512,1.04 C27.1702222,-0.300444444 24.9911111,-0.299555556 23.6511111,1.04 L20,4.69111111 L16.3497778,1.04 C15.0111111,-0.299555556 12.8302222,-0.3 11.4888889,1.04 L1.09822222,11.4315556 C0.448888889,12.0804444 0.0915555556,12.9435556 0.0915555556,13.8617778 C0.0911111111,14.7795556 0.448888889,15.6431111 1.10577778,16.2991111 L6.49244444,21.4817778 C6.46933333,22.5062222 6.88311111,23.4897778 7.66133333,24.216 C8.27288889,24.7871111 9.03644444,25.1195556 9.79333333,25.1617778 C9.87644444,26.024 10.2688889,27.0604444 10.8942222,27.6342222 C11.4617778,28.196 12.236,28.5208889 13.048,28.556 C13.1231111,29.388 13.5311111,30.2817778 14.1257778,30.8284444 C14.6942222,31.3497778 15.6613333,31.8835556 16.6093333,31.988 C16.8555556,32.9697778 17.3524444,34.0195556 18.6524444,34.4551111 C18.8435556,34.5191111 19.248,34.6306667 19.7528889,34.6306667 C20.3728889,34.6306667 21.1444444,34.4622222 21.8586667,33.8297778 C21.924,33.7635556 22.0435556,33.6515556 22.2,33.5057778 C23.4622222,32.3235556 24.66,31.1248889 25.168,30.1702222 C26.0457778,30.4902222 27.2044444,30.4764444 27.9364444,29.9084444 C28.8533333,29.2528889 29.1662222,28.2733333 29.0986667,27.36 C29.984,27.4222222 30.9493333,27.0724444 31.504,26.5248889 C32.0888889,25.9484444 32.4448889,24.9782222 32.3217778,24.0866667 C33.1048889,24.1146667 34.124,23.9182222 34.9266667,23.0711111 C35.8866667,22.0577778 35.6417778,20.6275556 35.3764444,20.1093333 C35.3617778,20.0782222 35.3426667,20.0475556 35.3208889,20.0191111 C35.3053333,19.9982222 35.2888889,19.9786667 35.2706667,19.9608889 L35.2533333,19.9435556 L38.9057778,16.2911111 C40.2431111,14.952 40.2431111,12.7711111 38.9035556,11.4315556 Z M7.73687926,21.4606444 L11.4318127,17.8809109 C11.6041861,17.6948843 11.9915994,17.4973376 12.4370394,17.4973376 L12.4498394,17.4973376 C12.8965595,17.5011776 13.3001861,17.7008576 13.6500528,18.0904043 C14.4547462,18.9872576 14.0916528,19.9528043 13.9790128,20.1972844 L10.130906,23.9131245 C9.583066,23.9583512 8.99085264,23.7356312 8.52066595,23.2965911 C7.99543927,22.8059245 7.71810592,22.1450178 7.73687926,21.4606444 Z M11.0285417,24.7963616 L14.8416618,21.1146548 C15.1616618,21.0024414 16.3422485,20.6598281 17.0671552,21.3753481 C17.7882219,22.0887348 17.6324886,22.9058015 17.5569686,23.1664949 L13.4157418,27.304735 C12.8085951,27.3503884 12.191635,27.1404684 11.7675284,26.722335 C11.316115,26.3080417 11.0225683,25.393695 11.0285417,24.7963616 Z M14.2894614,28.1996204 L18.4801816,24.0127402 C18.6845549,23.9069269 19.5054616,23.5894869 20.4927683,24.6403669 C21.1583683,25.3477803 20.9318083,26.305647 20.841355,26.5970604 L16.8571415,30.7472472 C16.2666348,30.7079938 15.4960748,30.3700738 14.9862081,29.9028738 C14.5646614,29.5146071 14.2702614,28.7730604 14.2894614,28.1996204 Z M21.4208978,32.6011335 C21.2574845,32.7534535 21.1333245,32.8716402 21.0893778,32.9168669 C20.3026044,33.6136136 19.3562577,33.3708402 19.0840444,33.2795335 C18.5101777,33.0879602 18.0702843,32.7052402 17.8002043,31.5660401 L21.7711911,27.43164 C22.3919912,27.0519066 23.2888445,27.5494 23.6037245,27.9342533 C24.0188712,28.4419867 24.1396179,29.1856667 24.1673512,29.4079601 C24.0803112,29.9011867 23.1599912,30.9734001 21.4208978,32.6011335 Z M33.4683978,22.0230201 C32.7550111,22.7765135 31.720771,22.7039802 31.2066377,22.6079802 L24.4384241,15.7800332 C24.2314907,15.5705399 23.893144,15.5696865 23.6840774,15.7766199 C23.4750107,15.9839799 23.473304,16.3214732 23.680664,16.5309666 L30.518851,23.4305935 C30.8781043,23.9673402 30.6515443,24.8765669 30.2073843,25.3139003 C29.7649309,25.749527 28.7405042,26.0021136 28.2191175,25.6620603 C28.2122909,25.6577936 28.2050375,25.6569403 28.1990642,25.6531003 L21.2734106,18.5555 C21.0681839,18.34558 20.7306906,18.34046 20.5190639,18.54654 C20.3074372,18.75262 20.3040239,19.08926 20.5101039,19.3013134 L27.4775709,26.440727 C27.6990109,27.1071803 27.6111175,27.9532604 26.8951708,28.4656871 C26.4983708,28.7728871 25.6347974,28.7745937 25.0758641,28.4998204 C25.0050374,28.0769937 24.8109041,27.274007 24.3031707,26.6527803 C23.838104,26.0840336 22.9224773,25.5699003 22.0175173,25.6232336 C22.0623173,24.9857936 21.952664,24.1409936 21.2798106,23.4263269 C20.4149572,22.5047268 19.5219439,22.2879802 18.8320238,22.3472868 C18.8418372,21.7529401 18.6767172,20.9721401 17.9577838,20.2613134 C17.1897838,19.5018467 16.1999171,19.4472334 15.4733037,19.5479267 C15.5633304,18.8430733 15.4353304,17.9556066 14.720237,17.1577399 C14.0247703,16.3833399 13.2567703,16.2152332 12.7353836,16.2105399 L12.7144769,16.2105399 C12.0360769,16.2105399 11.3367702,16.4934199 10.9459435,16.9149666 L7.48439673,20.2672867 L2.52268986,15.4941665 C2.10114318,15.0726199 1.8690365,14.5119798 1.8690365,13.9154998 C1.8690365,13.3194465 2.10114318,12.7583798 2.52268986,12.3368331 L12.4981569,2.36093936 C13.3689836,1.49096599 14.7859437,1.49096599 15.655917,2.36093936 L19.1601305,5.86600616 C19.1601305,5.86600616 13.3937303,11.5961397 12.9478636,12.1030197 C12.7059436,12.3786464 12.5984236,12.7182731 12.6372503,13.0852065 C12.6974103,13.6505398 13.1010369,14.2256865 13.8046103,14.7474999 C15.7805037,16.2143799 18.3716505,16.0219532 20.2536772,14.2674998 C21.0976239,13.4815798 23.1844507,11.4357131 24.0458907,10.5900597 L33.7453044,20.4516067 C33.8250911,20.6828601 33.9872244,21.4751801 33.4683978,22.0230201 Z M37.639919,15.2919269 L34.1399722,18.7918737 L24.7648251,9.2597133 C24.6658385,9.15901996 24.5305851,9.10184663 24.3889318,9.10056663 C24.2532518,9.10568663 24.1107451,9.15475329 24.0104784,9.25373996 C23.9797584,9.2840333 20.9179983,12.2980068 19.8585849,13.2853135 C18.3652515,14.6771002 16.3215181,14.8388069 14.7731447,13.6885135 C14.2568781,13.3057935 14.050798,12.9627534 14.030318,12.7699001 C14.0230647,12.7016334 14.0375714,12.6551268 14.0819447,12.6047801 C14.5107447,12.1162467 24.5066918,2.15827302 24.5066918,2.15827302 C25.3766652,1.28829965 26.7927719,1.28829965 27.6635986,2.15827302 L37.639919,12.1341667 C38.061039,12.5557134 38.292719,13.1167801 38.292719,13.7128335 C38.292719,14.3088868 38.0614657,14.8699535 37.639919,15.2919269 Z" id="path-1"></path>
    </defs>
    <g id="Symbols" stroke="none" stroke-width="1" fill="none" fill-rule="evenodd">
        <g id="ic-involved">
            <g id="icon" transform="translate(2.500000, 5.166667)">
                <mask id="mask-2" fill="white">
                    <use xlink:href="#path-1"></use>
                </mask>
                <path d="M38.9035556,11.4315556 L28.512,1.04 C27.1702222,-0.300444444 24.9911111,-0.299555556 23.6511111,1.04 L20,4.69111111 L16.3497778,1.04 C15.0111111,-0.299555556 12.8302222,-0.3 11.4888889,1.04 L1.09822222,11.4315556 C0.448888889,12.0804444 0.0915555556,12.9435556 0.0915555556,13.8617778 C0.0911111111,14.7795556 0.448888889,15.6431111 1.10577778,16.2991111 L6.49244444,21.4817778 C6.46933333,22.5062222 6.88311111,23.4897778 7.66133333,24.216 C8.27288889,24.7871111 9.03644444,25.1195556 9.79333333,25.1617778 C9.87644444,26.024 10.2688889,27.0604444 10.8942222,27.6342222 C11.4617778,28.196 12.236,28.5208889 13.048,28.556 C13.1231111,29.388 13.5311111,30.2817778 14.1257778,30.8284444 C14.6942222,31.3497778 15.6613333,31.8835556 16.6093333,31.988 C16.8555556,32.9697778 17.3524444,34.0195556 18.6524444,34.4551111 C18.8435556,34.5191111 19.248,34.6306667 19.7528889,34.6306667 C20.3728889,34.6306667 21.1444444,34.4622222 21.8586667,33.8297778 C21.924,33.7635556 22.0435556,33.6515556 22.2,33.5057778 C23.4622222,32.3235556 24.66,31.1248889 25.168,30.1702222 C26.0457778,30.4902222 27.2044444,30.4764444 27.9364444,29.9084444 C28.8533333,29.2528889 29.1662222,28.2733333 29.0986667,27.36 C29.984,27.4222222 30.9493333,27.0724444 31.504,26.5248889 C32.0888889,25.9484444 32.4448889,24.9782222 32.3217778,24.0866667 C33.1048889,24.1146667 34.124,23.9182222 34.9266667,23.0711111 C35.8866667,22.0577778 35.6417778,20.6275556 35.3764444,20.1093333 C35.3617778,20.0782222 35.3426667,20.0475556 35.3208889,20.0191111 C35.3053333,19.9982222 35.2888889,19.9786667 35.2706667,19.9608889 L35.2533333,19.9435556 L38.9057778,16.2911111 C40.2431111,14.952 40.2431111,12.7711111 38.9035556,11.4315556 Z M7.73687926,21.4606444 L11.4318127,17.8809109 C11.6041861,17.6948843 11.9915994,17.4973376 12.4370394,17.4973376 L12.4498394,17.4973376 C12.8965595,17.5011776 13.3001861,17.7008576 13.6500528,18.0904043 C14.4547462,18.9872576 14.0916528,19.9528043 13.9790128,20.1972844 L10.130906,23.9131245 C9.583066,23.9583512 8.99085264,23.7356312 8.52066595,23.2965911 C7.99543927,22.8059245 7.71810592,22.1450178 7.73687926,21.4606444 Z M11.0285417,24.7963616 L14.8416618,21.1146548 C15.1616618,21.0024414 16.3422485,20.6598281 17.0671552,21.3753481 C17.7882219,22.0887348 17.6324886,22.9058015 17.5569686,23.1664949 L13.4157418,27.304735 C12.8085951,27.3503884 12.191635,27.1404684 11.7675284,26.722335 C11.316115,26.3080417 11.0225683,25.393695 11.0285417,24.7963616 Z M14.2894614,28.1996204 L18.4801816,24.0127402 C18.6845549,23.9069269 19.5054616,23.5894869 20.4927683,24.6403669 C21.1583683,25.3477803 20.9318083,26.305647 20.841355,26.5970604 L16.8571415,30.7472472 C16.2666348,30.7079938 15.4960748,30.3700738 14.9862081,29.9028738 C14.5646614,29.5146071 14.2702614,28.7730604 14.2894614,28.1996204 Z M21.4208978,32.6011335 C21.2574845,32.7534535 21.1333245,32.8716402 21.0893778,32.9168669 C20.3026044,33.6136136 19.3562577,33.3708402 19.0840444,33.2795335 C18.5101777,33.0879602 18.0702843,32.7052402 17.8002043,31.5660401 L21.7711911,27.43164 C22.3919912,27.0519066 23.2888445,27.5494 23.6037245,27.9342533 C24.0188712,28.4419867 24.1396179,29.1856667 24.1673512,29.4079601 C24.0803112,29.9011867 23.1599912,30.9734001 21.4208978,32.6011335 Z M33.4683978,22.0230201 C32.7550111,22.7765135 31.720771,22.7039802 31.2066377,22.6079802 L24.4384241,15.7800332 C24.2314907,15.5705399 23.893144,15.5696865 23.6840774,15.7766199 C23.4750107,15.9839799 23.473304,16.3214732 23.680664,16.5309666 L30.518851,23.4305935 C30.8781043,23.9673402 30.6515443,24.8765669 30.2073843,25.3139003 C29.7649309,25.749527 28.7405042,26.0021136 28.2191175,25.6620603 C28.2122909,25.6577936 28.2050375,25.6569403 28.1990642,25.6531003 L21.2734106,18.5555 C21.0681839,18.34558 20.7306906,18.34046 20.5190639,18.54654 C20.3074372,18.75262 20.3040239,19.08926 20.5101039,19.3013134 L27.4775709,26.440727 C27.6990109,27.1071803 27.6111175,27.9532604 26.8951708,28.4656871 C26.4983708,28.7728871 25.6347974,28.7745937 25.0758641,28.4998204 C25.0050374,28.0769937 24.8109041,27.274007 24.3031707,26.6527803 C23.838104,26.0840336 22.9224773,25.5699003 22.0175173,25.6232336 C22.0623173,24.9857936 21.952664,24.1409936 21.2798106,23.4263269 C20.4149572,22.5047268 19.5219439,22.2879802 18.8320238,22.3472868 C18.8418372,21.7529401 18.6767172,20.9721401 17.9577838,20.2613134 C17.1897838,19.5018467 16.1999171,19.4472334 15.4733037,19.5479267 C15.5633304,18.8430733 15.4353304,17.9556066 14.720237,17.1577399 C14.0247703,16.3833399 13.2567703,16.2152332 12.7353836,16.2105399 L12.7144769,16.2105399 C12.0360769,16.2105399 11.3367702,16.4934199 10.9459435,16.9149666 L7.48439673,20.2672867 L2.52268986,15.4941665 C2.10114318,15.0726199 1.8690365,14.5119798 1.8690365,13.9154998 C1.8690365,13.3194465 2.10114318,12.7583798 2.52268986,12.3368331 L12.4981569,2.36093936 C13.3689836,1.49096599 14.7859437,1.49096599 15.655917,2.36093936 L19.1601305,5.86600616 C19.1601305,5.86600616 13.3937303,11.5961397 12.9478636,12.1030197 C12.7059436,12.3786464 12.5984236,12.7182731 12.6372503,13.0852065 C12.6974103,13.6505398 13.1010369,14.2256865 13.8046103,14.7474999 C15.7805037,16.2143799 18.3716505,16.0219532 20.2536772,14.2674998 C21.0976239,13.4815798 23.1844507,11.4357131 24.0458907,10.5900597 L33.7453044,20.4516067 C33.8250911,20.6828601 33.9872244,21.4751801 33.4683978,22.0230201 Z M37.639919,15.2919269 L34.1399722,18.7918737 L24.7648251,9.2597133 C24.6658385,9.15901996 24.5305851,9.10184663 24.3889318,9.10056663 C24.2532518,9.10568663 24.1107451,9.15475329 24.0104784,9.25373996 C23.9797584,9.2840333 20.9179983,12.2980068 19.8585849,13.2853135 C18.3652515,14.6771002 16.3215181,14.8388069 14.7731447,13.6885135 C14.2568781,13.3057935 14.050798,12.9627534 14.030318,12.7699001 C14.0230647,12.7016334 14.0375714,12.6551268 14.0819447,12.6047801 C14.5107447,12.1162467 24.5066918,2.15827302 24.5066918,2.15827302 C25.3766652,1.28829965 26.7927719,1.28829965 27.6635986,2.15827302 L37.639919,12.1341667 C38.061039,12.5557134 38.292719,13.1167801 38.292719,13.7128335 C38.292719,14.3088868 38.0614657,14.8699535 37.639919,15.2919269 Z"></path>
                <g id="color-shamrock" mask="url(#mask-2)" fill="#2CD4AE">
                    <g transform="translate(-2.500000, -5.166667)" id="color-radical-red">
                        <rect x="0" y="0" width="45" height="45"></rect>
                    </g>
                </g>
            </g>
        </g>
    </g>
</svg>