<?xml version="1.0" encoding="UTF-8"?>
<svg width="45px" height="45px" viewBox="0 0 45 45" version="1.1" xmlns="http://www.w3.org/2000/svg" xmlns:xlink="http://www.w3.org/1999/xlink">
    <!-- Generator: Sketch 45 (43475) - http://www.bohemiancoding.com/sketch -->
    <title>ic-keys</title>
    <desc>Created with Sketch.</desc>
    <defs>
        <path d="M7.8,25.6186667 L7.8,27.7853333 L9.16933333,29.1546667 C9.68838848,29.674113 9.68838848,30.515887 9.16933333,31.0353333 L8.00366667,32.201 L9.17366667,33.3666667 C9.69272181,33.886113 9.69272181,34.727887 9.17366667,35.2473333 L7.8,36.634 L7.8,37.6436667 L9.96666667,39.8103333 L12.1333333,37.6436667 L12.1333333,25.6186667 C12.132724,25.1771044 12.4001725,24.7793605 12.8093333,24.6133333 C13.2228784,24.4444928 13.6202798,24.2385402 13.9966667,23.998 C14.1926882,23.8107685 14.4535962,23.7067159 14.7246667,23.7076667 C15.2066752,23.7053579 15.6345659,24.0157541 15.782,24.4746667 C15.9244087,24.9304934 15.7476153,25.4255151 15.3486667,25.688 C15.005422,25.9196884 14.6479378,26.1295475 14.2783333,26.3163333 L14.2783333,37.8646667 C14.2688031,38.2940999 14.0896348,38.702292 13.78,39 L10.9763333,41.8036667 C10.4053529,42.3698889 9.48464706,42.3698889 8.91366667,41.8036667 L6.11433333,39 C5.81146498,38.6991772 5.63875049,38.2915088 5.63333333,37.8646667 L5.63333333,36.4563333 C5.63297173,35.9964864 5.81535314,35.5553416 6.14033333,35.23 L7.046,34.3243333 L6.30933333,33.5833333 C5.94654229,33.2208422 5.74270318,32.7290187 5.74270318,32.2161667 C5.74270318,31.7033147 5.94654229,31.2114911 6.30933333,30.849 L7.05033333,30.108 L6.14466667,29.2023333 C5.818097,28.8777024 5.63412016,28.4364698 5.63333333,27.976 L5.63333333,26.3163333 C2.68875539,24.8498716 0.692945017,21.9856305 0.336990663,18.7154094 C-0.0189636917,15.4451884 1.31388057,12.2186325 3.874,10.153 C4.34025692,9.79046833 5.01097982,9.86821148 5.38194691,10.3277854 C5.75291399,10.7873592 5.6874049,11.4593873 5.23466667,11.8386667 C3.16910346,13.5059043 2.13991214,16.1416289 2.52914772,18.7674104 C2.91838331,21.3931919 4.66793377,23.6170067 7.12833333,24.6133333 C7.53579321,24.7807224 7.80132664,25.1781659 7.8,25.6186667 L7.8,25.6186667 Z M32.643,31.4773333 C32.1867755,31.4765563 31.7492526,31.2959419 31.4253333,30.9746667 L30.2813333,29.8306667 C29.9384531,29.485061 29.7467535,29.0175009 29.7483333,28.5306667 L29.7483333,26.9013333 L28.3833333,26.9013333 C27.2458441,26.9013358 26.3230563,25.9804867 26.3206667,24.843 L26.3206667,23.4736667 L24.7,23.4736667 C24.2132585,23.4747724 23.7458724,23.2831441 23.4,22.9406667 L21.97,21.515 C17.1489432,23.1777341 11.8182991,21.2923153 9.1147657,16.968176 C6.41123226,12.6440367 7.05060584,7.02605033 10.6566614,3.41999475 C14.262717,-0.186060831 19.8807034,-0.825434408 24.2048427,1.87809904 C28.5289819,4.58163248 30.4144007,9.91227649 28.7516667,14.7333333 L38.2113333,24.193 C38.5315566,24.5158518 38.7120853,24.9516109 38.714,25.4063333 L38.714,29.965 C38.7116116,30.8009391 38.0332758,31.4773367 37.1973333,31.4773333 L32.643,31.4773333 Z M31.915,26.0996667 L31.915,28.3963333 L32.8293333,29.3106667 L36.5473333,29.3106667 L36.5473333,25.5926667 L26.7236667,15.769 C26.4112743,15.4577391 26.3187338,14.9881815 26.4896667,14.5816667 C28.1221717,10.7146461 26.7874801,6.23303323 23.3053021,3.88924206 C19.8231241,1.54545088 15.1687357,1.99592206 12.2006622,4.96399555 C9.23258873,7.93206905 8.78211755,12.5864575 11.1259087,16.0686354 C13.4696999,19.5508134 17.9513128,20.885505 21.8183333,19.253 C22.2248481,19.0820671 22.6944057,19.1746077 23.0056667,19.487 L24.8256667,21.307 L27.1223333,21.307 C27.8785953,21.307 28.4916667,21.9200714 28.4916667,22.6763333 L28.4916667,24.7346667 L30.55,24.7346667 C31.3028812,24.7370455 31.9126212,25.3467855 31.915,26.0996667 Z M18.8066667,6.78166667 C19.9478702,7.92390602 20.123242,9.71323564 19.2255252,11.055309 C18.3278085,12.3973824 16.6070492,12.9183846 15.1156566,12.2996728 C13.6242639,11.680961 12.7776436,10.0948684 13.0935851,8.51144255 C13.4095265,6.92801672 14.8000289,5.7882979 16.4146667,5.78933333 C17.3119325,5.79038382 18.1721553,6.1472516 18.8066667,6.78166667 L18.8066667,6.78166667 Z M17.2726667,8.31566667 C16.9630365,8.00603649 16.5117407,7.88511214 16.088778,7.99844465 C15.6658153,8.11177716 15.3354438,8.44214863 15.2221113,8.86511132 C15.1087788,9.28807401 15.2297032,9.73936982 15.5393333,10.049 C16.022877,10.5156749 16.789123,10.5156749 17.2726667,10.049 C17.5053286,9.82003479 17.6367115,9.50750029 17.6375255,9.18107114 C17.6383396,8.85464198 17.5085171,8.54145609 17.277,8.31133333 L17.2726667,8.31566667 Z" id="path-1"></path>
    </defs>
    <g id="Symbols" stroke="none" stroke-width="1" fill="none" fill-rule="evenodd">
        <g id="ic-keys">
            <g id="icon" transform="translate(3.500000, 0.811111)">
                <mask id="mask-2" fill="white">
                    <use xlink:href="#path-1"></use>
                </mask>
                <g id="Mask" fill-rule="nonzero">
                    <use fill="#2CD4AE" fill-rule="evenodd" xlink:href="#path-1"></use>
                    <path stroke="#FFFFFF" stroke-width="0.3" d="M7.65,25.6186667 L7.65000068,25.6182149 C7.65114363,25.2387066 7.42237637,24.8962937 7.07203254,24.7523665 C4.56237463,23.736093 2.77779736,21.4677563 2.3807691,18.7894055 C1.98374083,16.1110546 3.03353704,13.4225616 5.13833994,11.7236834 C5.52839134,11.3969196 5.58482994,10.8179416 5.26522753,10.422001 C4.94562512,10.0260604 4.36777154,9.95908172 3.96819105,10.2697392 C1.44782914,12.3032934 0.135683362,15.4797423 0.486109903,18.6991782 C0.836536444,21.9186142 2.80135277,24.7383749 5.70020271,26.1820631 L5.78333333,26.3163333 L5.78333311,27.9757437 C5.78405185,28.3963651 5.95210762,28.7994141 6.25073268,29.0962673 L7.15639935,30.001934 L7.15639935,30.214066 L6.41535548,30.9551099 C6.08072173,31.289467 5.89270318,31.7431186 5.89270318,32.2161667 C5.89270318,32.6892147 6.08072173,33.1428663 6.41570994,33.4775788 L7.1523766,34.2185788 L7.15206602,34.4303994 L6.24645829,35.336007 C5.94960138,35.6331941 5.78300298,36.0361629 5.78333333,36.4563333 L5.78332125,37.8627631 C5.7882397,38.2503093 5.94505371,38.6204468 6.22048135,38.894016 L9.01928797,41.6971578 C9.5317929,42.2053918 10.3582071,42.2053918 10.8702673,41.6976006 L13.6760369,38.8918719 C13.9570901,38.6216447 14.1197197,38.2511319 14.1283333,37.8646667 L14.1283333,26.3163333 L14.2106771,26.1824579 C14.5746653,25.9985104 14.9267173,25.7918401 15.2662201,25.5626901 C15.6092587,25.3369907 15.7612758,24.911343 15.639189,24.5205473 C15.5117687,24.1239306 15.1419626,23.8556696 14.7241405,23.8576657 C14.4918437,23.856851 14.2682556,23.94602 14.077442,24.1243936 C13.6934226,24.3698117 13.2879624,24.5799407 12.8657332,24.7523263 C12.5132254,24.8953651 12.2828082,25.2380368 12.2833333,25.6186667 L12.2833333,37.6436667 L12.2393994,37.7497327 L10.0727327,39.9163994 L9.86060065,39.9163994 L7.69393398,37.7497327 L7.65,37.6436667 L7.65,36.634 L7.69343564,36.5284347 L9.06756071,35.1413073 C9.52809046,34.6804305 9.52809046,33.9335695 9.06779761,33.4729293 L7.89779761,32.3072626 L7.89760065,32.094934 L9.06322737,30.9293073 C9.52375713,30.4684305 9.52375713,29.7215695 9.06326732,29.2607327 L7.69393398,27.8913994 L7.65,27.7853333 L7.65,25.6186667 Z M32.6431297,31.3273333 L37.1973339,31.3273333 C37.9506008,31.3273364 38.5618484,30.7178352 38.564,29.965 L38.5640013,25.4069649 C38.5622523,24.9915935 38.3973463,24.5935443 38.1052673,24.299066 L28.6456006,14.8393994 L28.6098634,14.6844268 C30.249821,9.92940984 28.3902291,4.67178614 24.1253228,2.00528627 C19.8604165,-0.661213597 14.3193865,-0.030598296 10.7627274,3.52606077 C7.20606837,7.08271983 6.57545307,12.6237498 9.24195294,16.8886561 C11.9084528,21.1535624 17.1660765,23.0131544 21.9210935,21.3731968 L22.0759049,21.4087732 L23.5055416,22.8340788 C23.8232434,23.1486622 24.2525618,23.3246827 24.7,23.3236667 L26.3206667,23.3236667 L26.4706667,23.4736667 L26.4706663,24.8426849 C26.4728822,25.897452 27.3285636,26.7513357 28.3833333,26.7513333 L29.7483333,26.7513333 L29.8983333,26.9013333 L29.8983325,28.5311534 C29.8968817,28.9782425 30.072931,29.407631 30.3873994,29.7246006 L31.5309638,30.8681669 C31.826822,31.1616101 32.2264321,31.3265908 32.6431306,31.3273333 Z M31.765,26.0999104 C31.7627582,25.4296075 31.2198582,24.8867839 30.55,24.8846667 L28.4916667,24.8846667 L28.3416667,24.7346667 L28.3416667,22.6763333 C28.3416667,22.0029141 27.7957525,21.457 27.1223333,21.457 L24.8256667,21.457 L24.7196006,21.413066 L22.8994084,19.5928734 C22.6312451,19.3237354 22.2267032,19.2440082 21.876672,19.3911905 C17.9435485,21.0516015 13.3853268,19.6940947 11.0014709,16.1523923 C8.61761487,12.6106899 9.07578641,7.87673933 12.0945962,4.85792954 C15.113406,1.83911975 19.8473566,1.38094821 23.389059,3.76480419 C26.9307614,6.14866017 28.2882682,10.7068818 26.6279401,14.6398084 C26.4806748,14.9900365 26.5604021,15.3945785 26.8297327,15.662934 L36.6533994,25.4866006 L36.6973333,25.5926667 L36.6973333,29.3106667 L36.5473333,29.4606667 L32.8293333,29.4606667 L32.7232673,29.4167327 L31.808934,28.5023994 L31.765,28.3963333 L31.765,26.0999104 Z M31.765,26.0999104 L31.765,26.0996667 L31.7650007,26.1001406 C31.7650005,26.1000639 31.7650003,26.0999871 31.765,26.0999104 Z M18.7005525,6.88768456 L18.7006087,6.88774073 C18.0941841,6.28140817 17.2720393,5.94033722 16.4145705,5.9393333 C14.8714964,5.93834376 13.5426238,7.02754811 13.2406854,8.54079353 C12.9387471,10.054039 13.7478436,11.569833 15.1731349,12.1611223 C16.5984263,12.7524117 18.2429183,12.2545013 19.1008465,10.9719111 C19.9587748,9.6893209 19.7911758,7.97929772 18.7005525,6.88768456 Z M17.3740704,8.20496054 L17.3827452,8.20494744 C17.6426809,8.46331767 17.788439,8.814947 17.7875251,9.1814452 C17.7866111,9.5479434 17.639101,9.89884139 17.3768333,10.1569319 C16.8351714,10.6796976 15.9768286,10.6796976 15.4332673,10.155066 C15.0857434,9.8075421 14.9500199,9.30101496 15.0772224,8.82628846 C15.204425,8.35156196 15.5752286,7.98075836 16.0499551,7.85355578 C16.522563,7.72692087 17.0266884,7.86087056 17.3740704,8.20496054 Z"></path>
                </g>
            </g>
        </g>
    </g>
</svg>