<?xml version="1.0" encoding="UTF-8"?>
<svg width="45px" height="45px" viewBox="0 0 45 45" version="1.1" xmlns="http://www.w3.org/2000/svg" xmlns:xlink="http://www.w3.org/1999/xlink">
    <!-- Generator: Sketch 45 (43475) - http://www.bohemiancoding.com/sketch -->
    <title>ic-phone</title>
    <desc>Created with Sketch.</desc>
    <defs></defs>
    <g id="Symbols" stroke="none" stroke-width="1" fill="none" fill-rule="evenodd" stroke-linejoin="round">
        <g id="ic-phone" stroke="#2CD4AE" stroke-width="1.3">
            <g id="mobile-phone-portrait" transform="translate(10.000000, 1.000000)">
                <path d="M24.1071429,38.5208333 C24.1071429,40.4988333 22.5071429,42.1041667 20.5357143,42.1041667 L4.46428571,42.1041667 C2.49285714,42.1041667 0.892857143,40.4988333 0.892857143,38.5208333 L0.892857143,4.47916667 C0.892857143,2.50116667 2.49285714,0.895833333 4.46428571,0.895833333 L20.5357143,0.895833333 C22.5071429,0.895833333 24.1071429,2.50116667 24.1071429,4.47916667 L24.1071429,38.5208333 Z" id="Shape" stroke-linecap="round"></path>
                <path d="M24.1071429,34 L0.892857143,34" id="path-1" stroke-linecap="round"></path>
                <path d="M24.1071429,8 L0.892857143,8" id="path-1" stroke-linecap="round"></path>
                <path d="M8,4 L16.9285714,4" id="Shape" stroke-linecap="round"></path>
                <path d="M12.5,39.4166667 C12.0071429,39.4166667 11.6071429,39.0153333 11.6071429,38.5208333 L11.6071429,38.5208333 C11.6071429,38.0263333 12.0071429,37.625 12.5,37.625 L12.5,37.625 C12.9928571,37.625 13.3928571,38.0263333 13.3928571,38.5208333 L13.3928571,38.5208333 C13.3928571,39.0153333 12.9946429,39.4166667 12.5,39.4166667 L12.5,39.4166667 Z" id="Shape"></path>
            </g>
        </g>
    </g>
</svg>