<?xml version="1.0" encoding="UTF-8"?>
<svg width="275px" height="60px" viewBox="0 0 275 60" version="1.1" xmlns="http://www.w3.org/2000/svg" xmlns:xlink="http://www.w3.org/1999/xlink">
    <!-- Generator: Sketch 45 (43475) - http://www.bohemiancoding.com/sketch -->
    <title>logo_type_white</title>
    <desc>Created with Sketch.</desc>
    <defs>
        <polygon id="path-1" points="43.7029406 0.185904762 0.254919065 0.185904762 0.254919065 60.0316492 43.7029406 60.0316492 43.7029406 0.185904762"></polygon>
        <polygon id="path-3" points="0.705899281 42.6031746 43.4288309 42.6031746 43.4288309 0.667514286 0.705899281 0.667514286 0.705899281 42.6031746"></polygon>
        <polygon id="path-5" points="0.396573741 42.6031746 42.1213939 42.6031746 42.1213939 0.491195238 0.396573741 0.491195238"></polygon>
        <polygon id="path-7" points="44.1220683 0.185904762 0.674046763 0.185904762 0.674046763 60.0316492 44.1220683 60.0316492 44.1220683 0.185904762"></polygon>
    </defs>
    <g id="Stylesheet" stroke="none" stroke-width="1" fill="none" fill-rule="evenodd">
        <g id="Brand" transform="translate(-76.000000, -314.000000)">
            <g id="logo_type_white" transform="translate(76.000000, 313.000000)">
                <g id="Group-3" transform="translate(230.485612, 0.782446)">
                    <mask id="mask-2" fill="white">
                        <use xlink:href="#path-1"></use>
                    </mask>
                    <g id="Clip-2"></g>
                    <path d="M2.2758723,0.185807937 L2.48657374,0.185807937 C3.8338759,0.483061905 4.51247302,1.05723651 4.51247302,1.91317302 L4.53819245,25.7370619 C10.4101349,20.1666968 16.2306385,17.3858714 21.9947572,17.3858714 C27.5640018,17.3858714 32.6119335,19.4714905 37.1682284,23.621427 C41.5286601,28.0996016 43.7029406,33.1258079 43.7029406,38.6816492 C43.7029406,46.6891095 39.826232,52.970173 32.0886421,57.5635698 C28.7510522,59.2057286 25.5371133,60.0316492 22.4478147,60.0316492 L21.1361241,60.0316492 C15.2948471,60.0316492 9.85024281,57.3321571 4.77955935,51.9380143 C1.76642986,47.9187921 0.254919065,43.1288397 0.254919065,37.5584746 L0.254919065,1.91317302 C0.254919065,1.05723651 0.934505396,0.483061905 2.2758723,0.185807937 M4.51247302,38.208173 L4.51247302,39.0340937 C4.51247302,46.1710937 8.31301259,51.4800302 15.9022212,54.9502524 C17.9686781,55.5544429 19.8194874,55.8662206 21.4645414,55.8662206 L22.4923291,55.8662206 C29.5829766,55.8662206 34.9365737,52.1442524 38.5560881,44.6799825 C39.1486241,42.3881254 39.4453867,40.6307444 39.4453867,39.3768556 L39.4453867,38.3843952 C39.4453867,31.2774111 35.5686781,25.9433 27.8300989,22.4275698 C25.4807284,21.848554 23.6398112,21.5561413 22.3132824,21.5561413 L21.6455665,21.5561413 C14.5598651,21.5561413 9.20231115,25.2180778 5.61346223,32.5313 C4.87254496,34.6469349 4.51247302,36.5408397 4.51247302,38.208173" id="Fill-1" fill="#FEFEFE" mask="url(#mask-2)"></path>
                </g>
                <g id="Group-6" transform="translate(183.003597, 18.211017)">
                    <mask id="mask-4" fill="white">
                        <use xlink:href="#path-3"></use>
                    </mask>
                    <g id="Clip-5"></g>
                    <path d="M22.0648921,0.667514286 C27.5708273,0.667514286 32.5495144,2.72311746 37.0326079,6.81786349 C41.2990647,11.204054 43.4288309,16.1557048 43.4288309,21.635054 C43.4288309,29.4972762 39.6233453,35.6728 32.0390827,40.1809905 C28.7648022,41.7921651 25.5973561,42.6035619 22.5327878,42.6035619 L21.2220863,42.6035619 C15.5034712,42.6035619 10.1765827,39.9437683 5.23053957,34.6406413 C2.21246403,30.4451968 0.705899281,26.1132286 0.705899281,21.635054 C0.705899281,14.8262921 3.78035971,9.10391111 9.92532374,4.48049841 C13.8435791,1.93689524 17.8894424,0.667514286 22.0648921,0.667514286 M5.0505036,21.162546 L5.0505036,21.9478 C5.0505036,28.2734032 8.14079137,33.1650222 14.3263129,36.6197524 C16.6044604,37.7729429 19.0210971,38.3480857 21.5811691,38.3480857 L22.5476259,38.3480857 C29.2168705,38.3480857 34.3172302,34.9679111 37.8447482,28.1988476 C38.6776619,26.0522286 39.0832374,23.972419 39.0832374,21.9478 L39.0832374,21.162546 C39.0832374,15.8584508 36.6359353,11.4412762 31.7522122,7.8800381 C28.8567986,5.91545079 25.5657014,4.92395873 21.8848561,4.92395873 C14.6141727,4.92395873 9.28728417,8.64592698 5.93980216,16.080181 C5.35419065,17.9285778 5.0505036,19.625927 5.0505036,21.162546" id="Fill-4" fill="#FEFEFE" mask="url(#mask-4)"></path>
                </g>
                <path d="M74.2828417,41.4935556 C74.3906655,40.6318095 75.1879676,40.0227778 76.0673741,40.1283175 C76.9457914,40.2290159 77.5689928,41.0152381 77.4601799,41.8711746 C76.8488489,46.6814603 74.0365288,49.9347937 70.4417446,51.6379524 C68.5088309,52.5539206 66.3493885,53.0119048 64.1948921,53.0119048 C62.0354496,53.0119048 59.8760072,52.5539206 57.9430935,51.6418254 C54.3334712,49.9406032 51.4993885,46.6814603 50.8831115,41.8711746 C50.7752878,41.0152381 51.3965108,40.2396667 52.2709712,40.134127 C53.1454317,40.027619 53.9427338,40.637619 54.0495683,41.4935556 C54.512518,45.1051429 56.6314029,47.5470794 59.3309532,48.8213016 C60.8315827,49.5271587 62.5132374,49.8854127 64.1948921,49.8854127 C65.8706115,49.8854127 67.5522662,49.5271587 69.0479496,48.8174286 C71.7277158,47.5528889 73.8198921,45.1099841 74.2828417,41.4935556 M64.1691727,18.8780476 C69.6760971,18.8780476 74.6528058,20.9336508 79.1319424,25.0283968 C83.4043345,29.4155556 85.5281655,34.3662381 85.5281655,39.8465556 C85.5281655,47.7087778 81.7286151,53.8833333 74.1394065,58.3915238 C70.8690827,60.0036667 67.7016367,60.8140952 64.6370683,60.8140952 L63.3253777,60.8140952 C57.608741,60.8140952 52.2808633,58.1552698 47.3348201,52.8511746 C44.3167446,48.6557302 42.8101799,44.3237619 42.8101799,39.8465556 C42.8101799,33.0368254 45.8846403,27.3154127 52.0246583,22.6910317 C55.9468705,20.1483968 59.988777,18.8780476 64.1691727,18.8780476 M47.1547842,39.3730794 L47.1547842,40.1593016 C47.1547842,46.4849048 50.2450719,51.3755556 56.4305935,54.8302857 C58.708741,55.9844444 61.1194424,56.558619 63.6864388,56.558619 L64.6519065,56.558619 C71.3211511,56.558619 76.4165647,53.1784444 79.9490288,46.409381 C80.7769964,44.2637302 81.1835612,42.1829524 81.1835612,40.1593016 L81.1835612,39.3730794 C81.1835612,34.0699524 78.7402158,29.6518095 73.8555036,26.0915397 C70.9561331,24.1269524 67.669982,23.1344921 63.9891367,23.1344921 C56.7184532,23.1344921 51.3915647,26.8564603 48.0450719,34.2907143 C47.4535252,36.1391111 47.1547842,37.8364603 47.1547842,39.3730794" id="Fill-7" fill="#FEFEFE"></path>
                <g id="Group-11" transform="translate(137.500000, 18.211017)">
                    <mask id="mask-6" fill="white">
                        <use xlink:href="#path-5"></use>
                    </mask>
                    <g id="Clip-10"></g>
                    <path d="M2.47391187,0.491195238 C3.92409173,0.829115873 4.64819245,1.40813175 4.64819245,2.17305238 L4.64819245,8.15783016 C10.4528687,3.04544921 16.0379406,0.491195238 21.4053867,0.491195238 C27.3079946,0.491195238 32.5428867,2.8982746 37.1288579,7.71436984 C40.4605126,11.7636079 42.1213939,15.9890683 42.1213939,20.3965603 L42.1213939,40.9661476 C42.1213939,41.7620524 41.4121313,42.3110524 39.9936061,42.6034651 C38.5740917,42.3410683 37.8638399,41.676846 37.8638399,40.6088619 L37.8638399,22.5063857 C37.8638399,13.8937667 34.0336241,8.20236984 26.3722032,5.44284603 C24.5164478,4.98389365 22.8555665,4.74763968 21.4053867,4.74763968 L20.9266097,4.74763968 C14.5007104,4.74763968 9.53883993,7.98063968 6.06770683,14.4534175 C5.11707734,16.4625444 4.64819245,19.5803222 4.64819245,23.8115921 L4.64819245,40.7899254 C4.64819245,41.7620524 3.93892986,42.3710841 2.52040468,42.6034651 L2.43236511,42.6034651 C1.37391187,42.6034651 0.69432554,41.8530683 0.396573741,40.3571159 L0.396573741,3.18100476 C0.60727518,1.39263968 1.30071043,0.491195238 2.47391187,0.491195238" id="Fill-9" fill="#FEFEFE" mask="url(#mask-6)"></path>
                </g>
                <g id="Group-14" transform="translate(89.028777, 0.782446)">
                    <mask id="mask-8" fill="white">
                        <use xlink:href="#path-7"></use>
                    </mask>
                    <g id="Clip-13"></g>
                    <path d="M2.69994604,0.185807937 L2.91064748,0.185807937 C4.2530036,0.483061905 4.93160072,1.05723651 4.93160072,1.91317302 L4.96226619,25.7370619 C10.8292626,20.1666968 16.6497662,17.3858714 22.4138849,17.3858714 C27.9821403,17.3858714 33.0360072,19.4714905 37.5913129,23.621427 C41.9527338,28.0996016 44.1220683,33.1258079 44.1220683,38.6816492 C44.1220683,46.6891095 40.2453597,52.970173 32.5067806,57.5635698 C29.1751259,59.2057286 25.9611871,60.0316492 22.8659532,60.0316492 L21.5552518,60.0316492 C15.7189209,60.0316492 10.2683813,57.3321571 5.20363309,51.9380143 C2.18555755,47.9187921 0.674046763,43.1288397 0.674046763,37.5584746 L0.674046763,1.91317302 C0.674046763,1.05723651 1.35264388,0.483061905 2.69994604,0.185807937 M4.93160072,38.208173 L4.93160072,39.0340937 C4.93160072,46.1710937 8.73115108,51.4800302 16.3203597,54.9502524 C18.3878058,55.5544429 20.2435612,55.8662206 21.8886151,55.8662206 L22.912446,55.8662206 C30.0030935,55.8662206 35.3557014,52.1442524 38.9801619,44.6799825 C39.5667626,42.3881254 39.8694604,40.6307444 39.8694604,39.3768556 L39.8694604,38.3843952 C39.8694604,31.2774111 35.9927518,25.9433 28.2541727,22.4275698 C25.8998561,21.848554 24.0589388,21.5561413 22.7324101,21.5561413 L22.0696403,21.5561413 C14.9780036,21.5561413 9.62143885,25.2180778 6.03160072,32.5313 C5.29167266,34.6469349 4.93160072,36.5408397 4.93160072,38.208173" id="Fill-12" fill="#FEFEFE" mask="url(#mask-8)"></path>
                </g>
                <path d="M1.7073741,1.05897937 L2.23165468,1.05897937 C3.57401079,1.32524921 4.25260791,1.82486825 4.25260791,2.58010635 L4.28327338,24.9225667 C9.54883094,20.4153444 14.4839928,18.168027 19.0857914,18.168027 C26.0844424,18.168027 31.6942446,21.4368524 35.9053058,27.9648206 C37.4880396,30.8202016 38.2853417,33.5206619 38.2853417,36.0632968 L38.2853417,58.9557254 C38.2853417,59.9578683 37.5760791,60.5823921 36.1466727,60.8138048 L36.1001799,60.8138048 C35.0723921,60.8138048 34.3779676,60.1495825 34.033723,58.8192016 L34.033723,36.9957254 C34.033723,30.6139635 30.6704137,26.0157254 23.9398381,23.2106937 C22.3254496,22.7517413 20.6952338,22.5154873 19.0857914,22.5154873 C12.3858813,22.5154873 7.6772482,25.9857095 4.9618705,32.9309952 C4.49397482,34.4221063 4.25260791,36.8349952 4.25260791,40.1289952 L4.25260791,58.9557254 C4.25260791,59.9578683 3.54829137,60.5823921 2.11294964,60.8138048 L2.06744604,60.8138048 C1.04361511,60.8138048 0.350179856,60.1495825 0,58.8192016 L0,3.18429683 C0.288848921,1.76870952 0.858633094,1.05897937 1.7073741,1.05897937" id="Fill-15" fill="#FEFEFE"></path>
            </g>
        </g>
    </g>
</svg>